<svg xmlns="http://www.w3.org/2000/svg" xmlns:xlink="http://www.w3.org/1999/xlink" version="1.1" x="0px" y="0px" viewBox="0 0 100 125" enable-background="new 0 0 100 100" xml:space="preserve"><g><path fill="none" stroke="#000000" stroke-width="2" stroke-linecap="round" stroke-linejoin="round" stroke-miterlimit="10" d="   M82.682,28.479c-0.06,0-0.117,0.007-0.175,0.008c0-0.003,0.001-0.005,0.001-0.008c0-11.863-9.617-21.479-21.479-21.479   c-8.663,0-16.109,5.139-19.505,12.526c-2.26-1.192-4.83-1.874-7.562-1.874c-7.084,0-13.094,4.546-15.313,10.874   c-0.306-0.026-0.612-0.046-0.926-0.046c-5.979,0-10.826,4.846-10.826,10.826c0,5.979,4.847,10.827,10.826,10.827h64.96   c5.979,0,10.826-4.847,10.826-10.827C93.508,33.325,88.661,28.479,82.682,28.479z"/><g><circle fill="none" stroke="#000000" stroke-width="2" stroke-linecap="round" stroke-linejoin="round" stroke-miterlimit="10" cx="50.001" cy="75.772" r="8.329"/><line fill="none" stroke="#000000" stroke-width="2" stroke-linecap="round" stroke-linejoin="round" stroke-miterlimit="10" x1="50" y1="58.206" x2="50" y2="61.719"/><line fill="none" stroke="#000000" stroke-width="2" stroke-linecap="round" stroke-linejoin="round" stroke-miterlimit="10" x1="37.578" y1="63.351" x2="40.062" y2="65.836"/><line fill="none" stroke="#000000" stroke-width="2" stroke-linecap="round" stroke-linejoin="round" stroke-miterlimit="10" x1="32.434" y1="75.772" x2="35.947" y2="75.773"/><line fill="none" stroke="#000000" stroke-width="2" stroke-linecap="round" stroke-linejoin="round" stroke-miterlimit="10" x1="37.578" y1="88.195" x2="40.064" y2="85.71"/><line fill="none" stroke="#000000" stroke-width="2" stroke-linecap="round" stroke-linejoin="round" stroke-miterlimit="10" x1="50" y1="93.34" x2="50" y2="89.826"/><line fill="none" stroke="#000000" stroke-width="2" stroke-linecap="round" stroke-linejoin="round" stroke-miterlimit="10" x1="62.422" y1="88.195" x2="59.938" y2="85.71"/><line fill="none" stroke="#000000" stroke-width="2" stroke-linecap="round" stroke-linejoin="round" stroke-miterlimit="10" x1="67.566" y1="75.773" x2="64.053" y2="75.773"/><line fill="none" stroke="#000000" stroke-width="2" stroke-linecap="round" stroke-linejoin="round" stroke-miterlimit="10" x1="62.422" y1="63.351" x2="59.938" y2="65.836"/></g></g><text x="0" y="115" fill="#000000" font-size="5px" font-weight="bold" font-family="'Helvetica Neue', Helvetica, Arial-Unicode, Arial, Sans-serif">Created by Linseed Studio</text><text x="0" y="120" fill="#000000" font-size="5px" font-weight="bold" font-family="'Helvetica Neue', Helvetica, Arial-Unicode, Arial, Sans-serif">from the Noun Project</text></svg>