<svg xmlns:dc="http://purl.org/dc/elements/1.1/" xmlns:cc="http://creativecommons.org/ns#" xmlns:rdf="http://www.w3.org/1999/02/22-rdf-syntax-ns#" xmlns:svg="http://www.w3.org/2000/svg" xmlns="http://www.w3.org/2000/svg" xmlns:xlink="http://www.w3.org/1999/xlink" xmlns:sodipodi="http://sodipodi.sourceforge.net/DTD/sodipodi-0.dtd" xmlns:inkscape="http://www.inkscape.org/namespaces/inkscape" version="1.1" x="0px" y="0px" viewBox="0 0 100 125"><g transform="translate(0,-952.36218)"><path style="text-indent:0;text-transform:none;direction:ltr;block-progression:tb;baseline-shift:baseline;color:#000000;enable-background:accumulate;" d="m 61,975.36217 c 11.5861,0 21,9.4139 21,21 0,1.3131 -0.206,2.5687 -0.4375,3.81253 6.0461,1.9351 10.4375,7.4991 10.4375,14.1875 0,8.2927 -6.7073,15 -15,15 l -54,0 c -8.2927,0 -15,-6.7073 -15,-15 0,-6.9087 4.6753,-12.6328 11.0312,-14.37503 -0.01,-0.2123 -0.031,-0.4063 -0.031,-0.625 0,-8.8246 7.1754,-16 16,-16 2.9607,0 5.684,0.8765 8.0625,2.2813 3.6671,-6.1308 10.2816,-10.2813 17.9375,-10.2813 z m 0,2 c -7.2546,0 -13.5459,4.0637 -16.75,10.0313 a 1.0001,1.0001 0 0 1 -1.4375,0.3437 c -2.2361,-1.5106 -4.9087,-2.375 -7.8125,-2.375 -7.7438,0 -14,6.2563 -14,14 0,0.4069 0.026,0.80463 0.062,1.21883 a 1.0001,1.0001 0 0 1 -0.7813,1.0625 c -5.8891,1.2426 -10.2812,6.4327 -10.2812,12.7187 0,7.2193 5.7807,13 13,13 l 54,0 c 7.2193,0 13,-5.7807 13,-13 0,-6.0986 -4.1271,-11.1619 -9.75,-12.5937 a 1.0001,1.0001 0 0 1 -0.7188,-1.1875 c 0.3083,-1.35943 0.4688,-2.76893 0.4688,-4.21883 0,-10.5052 -8.4948,-19 -19,-19 z" fill="#000000" fill-opacity="1" stroke="none" marker="none" visibility="visible" display="inline" overflow="visible"/></g><text x="0" y="115" fill="#000000" font-size="5px" font-weight="bold" font-family="'Helvetica Neue', Helvetica, Arial-Unicode, Arial, Sans-serif">Created by arjuazka</text><text x="0" y="120" fill="#000000" font-size="5px" font-weight="bold" font-family="'Helvetica Neue', Helvetica, Arial-Unicode, Arial, Sans-serif">from the Noun Project</text></svg>