<svg xmlns="http://www.w3.org/2000/svg" xmlns:xlink="http://www.w3.org/1999/xlink" version="1.1" x="0px" y="0px" viewBox="0 0 150 187.5" enable-background="new 0 0 150 150" xml:space="preserve"><text transform="matrix(1 0 0 1 0 161.5273)" font-family="'HelveticaNeue-Bold'" font-size="6">Created by Ricardo Cardoso</text><text transform="matrix(1 0 0 1 0 168.7275)" font-family="'HelveticaNeue-Bold'" font-size="6">from the Noun Project</text><g><path d="M121.875,70.312h-4.688c-7.771,0-14.062,6.291-14.062,14.062c0,1.295,1.051,2.344,2.344,2.344   c1.295,0,2.344-1.049,2.344-2.344c0-5.182,4.193-9.375,9.375-9.375h4.688c7.773,0,14.062,6.291,14.062,14.062   c0,10.363-8.385,18.75-18.75,18.75h-75c-5.184,0-9.377-4.193-9.377-9.375s4.193-9.375,9.377-9.375h0.229h4.459   c0-10.363,8.387-18.75,18.75-18.75c0-12.955,10.482-23.438,23.438-23.438h4.688c10.729,0,19.752,7.195,22.539,17.023   c0.012-0.002,0.021-0.006,0.031-0.006c0.28,0.98,1.174,1.701,2.244,1.701c1.293,0,2.344-1.049,2.344-2.344   c0-0.131-0.02-0.256-0.039-0.381c-0.051-0.186-0.104-0.369-0.158-0.553c-3.441-11.643-14.195-20.129-26.961-20.129h-4.688   c-14.092,0-25.746,10.336-27.803,23.85c-9.344,1.756-16.721,9.041-18.604,18.338h-0.24h-0.229h-0.146v0.008   c-7.705,0.08-13.916,6.332-13.916,14.055c0,7.773,6.289,14.062,14.062,14.062h75c12.955,0,23.438-10.482,23.438-23.438   C140.625,78.699,132.24,70.312,121.875,70.312z"/><path d="M44.531,117.188c-1.013,0-1.867,0.646-2.195,1.545l-0.016-0.006l-4.688,14.062l0.016,0.006   c-0.091,0.25-0.149,0.518-0.149,0.799c0,1.295,1.049,2.344,2.344,2.344c1.017,0,1.874-0.65,2.198-1.556l0.007,0.003l4.688-14.062   l-0.007-0.003c0.089-0.247,0.146-0.51,0.146-0.788C46.875,118.238,45.824,117.188,44.531,117.188z"/><path d="M58.594,117.188c-1.013,0-1.867,0.646-2.195,1.545l-0.016-0.006l-4.688,14.062l0.016,0.006   c-0.091,0.25-0.149,0.518-0.149,0.799c0,1.295,1.049,2.344,2.344,2.344c1.017,0,1.874-0.65,2.198-1.556l0.007,0.003l4.688-14.062   l-0.007-0.003c0.089-0.247,0.146-0.51,0.146-0.788C60.938,118.238,59.889,117.188,58.594,117.188z"/><path d="M72.656,117.188c-1.013,0-1.868,0.646-2.196,1.544l-0.015-0.005l-4.688,14.062l0.016,0.006   c-0.091,0.25-0.149,0.518-0.149,0.799c0,1.295,1.049,2.344,2.344,2.344c1.017,0,1.874-0.65,2.198-1.556l0.007,0.003l4.688-14.062   l-0.007-0.003c0.089-0.247,0.146-0.51,0.146-0.788C75,118.238,73.949,117.188,72.656,117.188z"/><path d="M86.719,117.188c-1.013,0-1.867,0.646-2.194,1.545l-0.017-0.006l-4.688,14.062l0.017,0.006   c-0.092,0.25-0.149,0.518-0.149,0.799c0,1.295,1.049,2.344,2.344,2.344c1.017,0,1.873-0.65,2.198-1.556l0.007,0.003l4.688-14.062   l-0.007-0.003c0.089-0.247,0.146-0.51,0.146-0.788C89.062,118.238,88.014,117.188,86.719,117.188z"/><path d="M100.781,117.188c-1.013,0-1.866,0.646-2.194,1.544l-0.015-0.005l-4.689,14.062l0.017,0.006   c-0.092,0.25-0.149,0.518-0.149,0.799c0,1.295,1.049,2.344,2.344,2.344c1.017,0,1.874-0.65,2.199-1.555l0.006,0.002l4.688-14.062   l-0.007-0.003c0.089-0.247,0.146-0.51,0.146-0.788C103.125,118.238,102.076,117.188,100.781,117.188z"/><path d="M114.844,117.188c-1.013,0-1.866,0.646-2.194,1.544l-0.015-0.005l-4.688,14.062l0.015,0.005   c-0.092,0.251-0.149,0.518-0.149,0.8c0,1.295,1.051,2.344,2.346,2.344c1.015,0,1.872-0.65,2.197-1.555l0.006,0.002l4.688-14.062   l-0.007-0.003c0.089-0.247,0.146-0.51,0.146-0.788C117.188,118.238,116.139,117.188,114.844,117.188z"/><path d="M39.246,79.939c0.242-0.701,0.506-1.393,0.799-2.068c-4.455-4.266-7.234-10.27-7.234-16.934   c0-12.953,10.482-23.438,23.439-23.438c5.654,0,10.838,1.998,14.885,5.326c1.385-0.904,2.842-1.705,4.361-2.395   c-5.029-4.723-11.795-7.619-19.246-7.619c-15.547,0-28.127,12.58-28.127,28.125c0,7.697,3.086,14.662,8.086,19.738   C37.188,80.348,38.203,80.105,39.246,79.939z"/><polygon points="42.188,79.688 42.178,79.688 42.188,79.695  "/><path d="M56.25,28.125c1.295,0,2.344-1.049,2.344-2.344v-9.369c0-0.002,0-0.004,0-0.006c0-1.293-1.049-2.344-2.344-2.344   s-2.344,1.051-2.344,2.344v9.375C53.906,27.076,54.955,28.125,56.25,28.125z"/><path d="M21.094,58.594h-9.371c-0.002,0-0.002,0-0.004,0c-1.295,0-2.344,1.049-2.344,2.344s1.049,2.344,2.344,2.344h9.375   c1.295,0,2.344-1.049,2.344-2.344C23.438,59.645,22.389,58.594,21.094,58.594z"/><path d="M29.73,36.717c0.916,0.916,2.398,0.916,3.314,0c0.914-0.916,0.916-2.398,0-3.314l-6.627-6.627c0,0,0-0.002-0.002-0.002   c-0.916-0.916-2.4-0.916-3.314,0c-0.916,0.914-0.916,2.398,0,3.314L29.73,36.717z"/><path d="M82.764,36.717l6.629-6.629c0.916-0.916,0.916-2.4,0-3.314c-0.914-0.916-2.398-0.916-3.314,0l-6.625,6.625   c-0.002,0.002-0.002,0.002-0.004,0.004c-0.916,0.914-0.916,2.398,0,3.314S81.85,37.631,82.764,36.717z"/></g><text x="0" y="165" fill="#000000" font-size="5px" font-weight="bold" font-family="'Helvetica Neue', Helvetica, Arial-Unicode, Arial, Sans-serif">Created by Ricardo Cardoso</text><text x="0" y="170" fill="#000000" font-size="5px" font-weight="bold" font-family="'Helvetica Neue', Helvetica, Arial-Unicode, Arial, Sans-serif">from the Noun Project</text></svg>