<svg xmlns="http://www.w3.org/2000/svg" xmlns:xlink="http://www.w3.org/1999/xlink" version="1.1" x="0px" y="0px" viewBox="0 0 100 125" enable-background="new 0 0 100 100" xml:space="preserve"><g><path fill="none" stroke="#000000" stroke-width="2" stroke-linecap="round" stroke-linejoin="round" stroke-miterlimit="10" d="   M82.765,63.308c-0.059,0-0.116,0.008-0.175,0.009c0-0.003,0.001-0.006,0.001-0.009c0-11.875-9.627-21.502-21.502-21.502   c-8.672,0-16.126,5.145-19.526,12.54c-2.262-1.193-4.834-1.876-7.57-1.876c-7.092,0-13.108,4.551-15.33,10.885   c-0.306-0.025-0.613-0.046-0.926-0.046c-5.987,0-10.838,4.852-10.838,10.838c0,5.986,4.852,10.838,10.838,10.838h65.029   c5.987,0,10.838-4.853,10.838-10.838C93.603,68.16,88.751,63.308,82.765,63.308z"/><g><circle fill="none" stroke="#000000" stroke-width="2" stroke-linecap="round" stroke-linejoin="round" stroke-miterlimit="10" cx="75.27" cy="24.61" r="8.523"/></g></g><text x="0" y="115" fill="#000000" font-size="5px" font-weight="bold" font-family="'Helvetica Neue', Helvetica, Arial-Unicode, Arial, Sans-serif">Created by Linseed Studio</text><text x="0" y="120" fill="#000000" font-size="5px" font-weight="bold" font-family="'Helvetica Neue', Helvetica, Arial-Unicode, Arial, Sans-serif">from the Noun Project</text></svg>