<svg xmlns="http://www.w3.org/2000/svg" xmlns:xlink="http://www.w3.org/1999/xlink" version="1.1" x="0px" y="0px" viewBox="0 0 150 187.5" enable-background="new 0 0 150 150" xml:space="preserve"><text transform="matrix(1 0 0 1 0 161.5273)" font-family="'HelveticaNeue-Bold'" font-size="6">Created by Ricardo Cardoso</text><text transform="matrix(1 0 0 1 0 168.7275)" font-family="'HelveticaNeue-Bold'" font-size="6">from the Noun Project</text><g><path d="M121.875,82.031h-4.688c-7.771,0-14.062,6.29-14.062,14.062c0,1.295,1.051,2.344,2.344,2.344   c1.295,0,2.344-1.049,2.344-2.344c0-5.182,4.193-9.375,9.375-9.375h4.688c7.773,0,14.062,6.29,14.062,14.062   c0,10.363-8.385,18.75-18.75,18.75h-75c-5.183,0-9.376-4.193-9.376-9.375s4.193-9.375,9.376-9.375h0.229h4.459   c0-10.363,8.387-18.75,18.75-18.75c0-12.955,10.482-23.438,23.438-23.438h4.688c10.729,0,19.752,7.194,22.539,17.022   c0.012-0.001,0.021-0.005,0.031-0.005c0.28,0.98,1.174,1.701,2.244,1.701c1.293,0,2.344-1.049,2.344-2.344   c0-0.131-0.02-0.257-0.039-0.382c-0.051-0.186-0.104-0.369-0.158-0.553c-3.441-11.642-14.195-20.128-26.961-20.128h-4.688   c-14.092,0-25.745,10.336-27.803,23.849c-9.343,1.757-16.721,9.042-18.604,18.339h-0.24h-0.229h-0.146v0.008   c-7.704,0.079-13.916,6.332-13.916,14.055c0,7.772,6.29,14.062,14.062,14.062h75c12.955,0,23.438-10.482,23.438-23.438   C140.625,90.418,132.24,82.031,121.875,82.031z"/><path d="M39.247,91.658c0.241-0.702,0.505-1.394,0.799-2.069c-4.456-4.266-7.234-10.27-7.234-16.933   c0-12.954,10.482-23.438,23.438-23.438c5.654,0,10.838,1.998,14.885,5.326c1.385-0.904,2.843-1.705,4.361-2.396   c-5.028-4.723-11.794-7.618-19.246-7.618c-15.547,0-28.126,12.579-28.126,28.125c0,7.696,3.086,14.662,8.086,19.738   C37.188,92.065,38.204,91.823,39.247,91.658z"/><polygon points="42.188,91.406 42.179,91.406 42.188,91.414  "/><path d="M56.25,39.844c1.295,0,2.344-1.049,2.344-2.344v-9.37c0-0.002,0.001-0.003,0.001-0.005c0-1.294-1.05-2.344-2.344-2.344   c-1.295,0-2.345,1.05-2.345,2.344V37.5C53.906,38.795,54.956,39.844,56.25,39.844z"/><path d="M21.094,70.312h-9.37c-0.002,0-0.003,0-0.005,0c-1.294,0-2.344,1.049-2.344,2.344S10.425,75,11.719,75h9.375   c1.295,0,2.344-1.049,2.344-2.344C23.438,71.362,22.389,70.312,21.094,70.312z"/><path d="M29.73,48.435c0.916,0.916,2.399,0.916,3.314,0c0.915-0.915,0.916-2.398,0-3.314l-6.626-6.626   c-0.001-0.001-0.001-0.002-0.002-0.003c-0.916-0.915-2.4-0.916-3.315,0c-0.915,0.915-0.915,2.399,0,3.314L29.73,48.435z"/><path d="M82.764,48.435l6.629-6.629c0.916-0.916,0.916-2.399,0-3.314c-0.914-0.915-2.398-0.916-3.314,0l-6.625,6.626   c-0.002,0.001-0.002,0.002-0.004,0.003c-0.916,0.915-0.916,2.399,0,3.314C80.365,49.351,81.85,49.35,82.764,48.435z"/></g><text x="0" y="165" fill="#000000" font-size="5px" font-weight="bold" font-family="'Helvetica Neue', Helvetica, Arial-Unicode, Arial, Sans-serif">Created by Ricardo Cardoso</text><text x="0" y="170" fill="#000000" font-size="5px" font-weight="bold" font-family="'Helvetica Neue', Helvetica, Arial-Unicode, Arial, Sans-serif">from the Noun Project</text></svg>