<svg xmlns="http://www.w3.org/2000/svg" xmlns:xlink="http://www.w3.org/1999/xlink" version="1.1" x="0px" y="0px" viewBox="0 0 100 125" enable-background="new 0 0 100 100" xml:space="preserve"><g display="none"><rect x="-949.328" y="-409.245" display="inline" fill="#000000" width="1557.221" height="1347.135"/></g><g><rect x="88.73" y="35.05" transform="matrix(-0.235 -0.972 0.972 -0.235 71.3372 136.9921)" width="1.697" height="10.746"/><polygon points="18.743,56.69 10.607,58.659 5,60.015 5.399,61.665 8.697,60.867 8.697,60.867 11.006,60.308 15.844,59.137    15.844,59.137 19.142,58.339  "/><rect x="72.71" y="78.639" transform="matrix(-0.6897 -0.7241 0.7241 -0.6897 74.3787 190.8495)" width="10.746" height="1.697"/><polygon points="27.349,27.445 28.578,26.275 26.237,23.818 26.237,23.817 18.827,16.036 17.599,17.207 19.938,19.663    19.938,19.663  "/><rect x="37.657" y="83.691" transform="matrix(-0.9593 -0.2823 0.2823 -0.9593 50.304 185.3756)" width="1.696" height="10.746"/><polygon points="62.2,5.543 60.819,10.236 58.208,19.106 59.835,19.585 60.793,16.33 60.794,16.33 62.446,10.715 62.869,9.276    62.869,9.275 63.827,6.021  "/><rect x="78.282" y="16.173" transform="matrix(-0.6986 -0.7155 0.7155 -0.6986 118.9923 93.2192)" width="1.697" height="10.746"/><polygon points="24.122,74.092 24.121,74.092 16.434,81.6 17.619,82.815 20.046,80.444 20.047,80.444 27.734,72.936 26.549,71.721     "/><rect x="83.834" y="60.152" transform="matrix(-0.9628 -0.2701 0.2701 -0.9628 158.6191 143.8317)" width="10.746" height="1.696"/><polygon points="19.004,42.184 19.463,40.551 16.197,39.635 16.197,39.634 5.851,36.731 5.392,38.364 8.658,39.28 8.658,39.281     "/><rect x="54.704" y="88.606" transform="matrix(-0.2474 -0.9689 0.9689 -0.2474 -11.731 169.7961)" width="10.746" height="1.697"/><polygon points="41.271,19.249 42.915,18.829 42.076,15.542 42.076,15.542 39.418,5.13 37.774,5.55 38.613,8.837 38.613,8.837  "/><path d="M51.149,23.696c-13.832,0-25.086,11.254-25.086,25.086s11.254,25.086,25.086,25.086s25.086-11.254,25.086-25.086   S64.981,23.696,51.149,23.696z M51.149,71.685c-12.629,0-22.903-10.274-22.903-22.903S38.52,25.88,51.149,25.88   s22.903,10.274,22.903,22.903S63.778,71.685,51.149,71.685z"/></g><text x="0" y="115" fill="#000000" font-size="5px" font-weight="bold" font-family="'Helvetica Neue', Helvetica, Arial-Unicode, Arial, Sans-serif">Created by Oksana Latysheva</text><text x="0" y="120" fill="#000000" font-size="5px" font-weight="bold" font-family="'Helvetica Neue', Helvetica, Arial-Unicode, Arial, Sans-serif">from the Noun Project</text></svg>