<svg xmlns="http://www.w3.org/2000/svg" xmlns:xlink="http://www.w3.org/1999/xlink" version="1.1" x="0px" y="0px" viewBox="0 0 100 125" enable-background="new 0 0 100 100" xml:space="preserve"><g><path fill="none" stroke="#000000" stroke-width="2" stroke-linecap="round" stroke-linejoin="round" stroke-miterlimit="10" d="   M84.49,65.82c-0.061,0-0.119,0.008-0.179,0.009c0-0.003,0.001-0.006,0.001-0.009c0-12.141-9.842-21.982-21.982-21.982   c-8.865,0-16.486,5.26-19.962,12.819c-2.312-1.22-4.942-1.918-7.739-1.918c-7.25,0-13.4,4.652-15.672,11.128   c-0.312-0.026-0.627-0.047-0.947-0.047c-6.12,0-11.08,4.96-11.08,11.08c0,6.119,4.96,11.08,11.08,11.08h66.48   c6.12,0,11.08-4.961,11.08-11.08C95.57,70.78,90.61,65.82,84.49,65.82z"/><g><circle fill="none" stroke="#000000" stroke-width="2" stroke-linecap="round" stroke-linejoin="round" stroke-miterlimit="10" cx="27.145" cy="26.645" r="8.523"/><line fill="none" stroke="#000000" stroke-width="2" stroke-linecap="round" stroke-linejoin="round" stroke-miterlimit="10" x1="27.145" y1="8.667" x2="27.145" y2="12.263"/><line fill="none" stroke="#000000" stroke-width="2" stroke-linecap="round" stroke-linejoin="round" stroke-miterlimit="10" x1="14.432" y1="13.933" x2="16.973" y2="16.476"/><line fill="none" stroke="#000000" stroke-width="2" stroke-linecap="round" stroke-linejoin="round" stroke-miterlimit="10" x1="9.166" y1="26.645" x2="12.762" y2="26.646"/><line fill="none" stroke="#000000" stroke-width="2" stroke-linecap="round" stroke-linejoin="round" stroke-miterlimit="10" x1="14.432" y1="39.358" x2="16.975" y2="36.815"/><line fill="none" stroke="#000000" stroke-width="2" stroke-linecap="round" stroke-linejoin="round" stroke-miterlimit="10" x1="27.145" y1="44.624" x2="27.145" y2="41.027"/><line fill="none" stroke="#000000" stroke-width="2" stroke-linecap="round" stroke-linejoin="round" stroke-miterlimit="10" x1="39.856" y1="39.358" x2="37.313" y2="36.815"/><line fill="none" stroke="#000000" stroke-width="2" stroke-linecap="round" stroke-linejoin="round" stroke-miterlimit="10" x1="45.122" y1="26.646" x2="41.526" y2="26.646"/><line fill="none" stroke="#000000" stroke-width="2" stroke-linecap="round" stroke-linejoin="round" stroke-miterlimit="10" x1="39.856" y1="13.933" x2="37.313" y2="16.476"/></g></g><text x="0" y="115" fill="#000000" font-size="5px" font-weight="bold" font-family="'Helvetica Neue', Helvetica, Arial-Unicode, Arial, Sans-serif">Created by Linseed Studio</text><text x="0" y="120" fill="#000000" font-size="5px" font-weight="bold" font-family="'Helvetica Neue', Helvetica, Arial-Unicode, Arial, Sans-serif">from the Noun Project</text></svg>