<svg xmlns="http://www.w3.org/2000/svg" xmlns:xlink="http://www.w3.org/1999/xlink" version="1.1" x="0px" y="0px" viewBox="0 0 100 125" enable-background="new 0 0 100 100" xml:space="preserve"><g display="none"><rect x="-589.328" y="-1009.245" display="inline" fill="#000000" width="1557.221" height="1347.135"/></g><g><path d="M5.534,56.271c-0.031,0-0.06-0.008-0.091-0.009C8.492,78.149,27.273,95,50,95c22.727,0,41.508-16.851,44.557-38.739   c-0.031,0.001-0.06,0.009-0.091,0.009H5.534z"/><path d="M9.017,52.271c0.166-0.045,0.337-0.076,0.518-0.076h12.846c0.18,0,0.351,0.031,0.518,0.076h8.066   c1.002-9.617,9.154-17.141,19.032-17.141c9.884,0,18.04,7.524,19.042,17.141h8.063c0.166-0.045,0.337-0.076,0.518-0.076h12.846   c0.18,0,0.351,0.031,0.518,0.076h3.483c0.164,0,0.322,0.025,0.474,0.063C94.98,51.56,95,50.783,95,50C95,25.147,74.853,5,50,5   C25.147,5,5,25.147,5,50c0,0.783,0.02,1.56,0.06,2.333c0.153-0.037,0.31-0.063,0.474-0.063H9.017z M86.62,36.861   c1.021-0.424,2.19,0.063,2.613,1.082c0.423,1.021-0.062,2.19-1.083,2.613l-11.868,4.916c-0.25,0.104-0.509,0.153-0.764,0.153   c-0.785,0-1.53-0.466-1.849-1.235c-0.423-1.021,0.062-2.19,1.083-2.613L86.62,36.861z M68.116,33.251l9.083-9.084   c0.78-0.781,2.047-0.781,2.828,0s0.781,2.047,0,2.828l-9.083,9.084c-0.39,0.391-0.902,0.586-1.414,0.586s-1.023-0.195-1.414-0.586   C67.335,35.298,67.335,34.032,68.116,33.251z M58.722,27.912l4.916-11.868c0.422-1.02,1.592-1.505,2.613-1.082   c1.021,0.423,1.505,1.593,1.083,2.613l-4.916,11.868c-0.319,0.77-1.063,1.235-1.849,1.235c-0.255,0-0.514-0.05-0.764-0.153   C58.784,30.103,58.299,28.933,58.722,27.912z M48,13.729c0-1.104,0.896-2,2-2s2,0.896,2,2v12.846c0,1.104-0.896,2-2,2s-2-0.896-2-2   V13.729z M33.75,14.962c1.02-0.423,2.19,0.063,2.613,1.082l4.916,11.868c0.423,1.021-0.062,2.19-1.083,2.613   c-0.25,0.104-0.509,0.153-0.764,0.153c-0.785,0-1.53-0.466-1.849-1.235l-4.916-11.868C32.244,16.555,32.729,15.385,33.75,14.962z    M19.973,24.167c0.78-0.781,2.048-0.781,2.828,0l9.083,9.084c0.781,0.781,0.781,2.047,0,2.828c-0.39,0.391-0.902,0.586-1.414,0.586   s-1.024-0.195-1.414-0.586l-9.083-9.084C19.191,26.214,19.191,24.948,19.973,24.167z M10.768,37.943   c0.422-1.02,1.593-1.506,2.613-1.082l11.868,4.916c1.021,0.423,1.505,1.593,1.083,2.613c-0.319,0.77-1.063,1.235-1.849,1.235   c-0.255,0-0.514-0.05-0.764-0.153L11.85,40.557C10.83,40.134,10.345,38.964,10.768,37.943z"/><path d="M49.997,39.13c-7.668,0-14.008,5.736-14.99,13.141h29.99C64.014,44.866,57.67,39.13,49.997,39.13z"/></g><text x="0" y="115" fill="#000000" font-size="5px" font-weight="bold" font-family="'Helvetica Neue', Helvetica, Arial-Unicode, Arial, Sans-serif">Created by Oksana Latysheva</text><text x="0" y="120" fill="#000000" font-size="5px" font-weight="bold" font-family="'Helvetica Neue', Helvetica, Arial-Unicode, Arial, Sans-serif">from the Noun Project</text></svg>