<?xml version="1.0" encoding="utf-8"?>
<!-- Generator: Adobe Illustrator 16.0.0, SVG Export Plug-In . SVG Version: 6.00 Build 0)  -->
<!DOCTYPE svg PUBLIC "-//W3C//DTD SVG 1.1//EN" "http://www.w3.org/Graphics/SVG/1.1/DTD/svg11.dtd">
<svg version="1.1" id="Layer_1" xmlns="http://www.w3.org/2000/svg" xmlns:xlink="http://www.w3.org/1999/xlink" x="0px" y="0px"
	 width="640px" height="480px" viewBox="0 0 640 480" enable-background="new 0 0 640 480" xml:space="preserve">
<image overflow="visible" width="400" height="117" xlink:href="../../../../Desktop/joint.png"  transform="matrix(0.3382 0.0894 -0.0894 0.3382 388.6045 51.4497)">
</image>
<image overflow="visible" width="400" height="117" xlink:href="../../../../Desktop/joint.png"  transform="matrix(-0.3383 -0.0891 0.0891 -0.3383 224.2671 126.8364)">
</image>
<image overflow="visible" width="400" height="117" xlink:href="../../../../Desktop/joint.png"  transform="matrix(-0.3497 -0.0116 0.0116 -0.3497 234.7236 144.1743)">
</image>
<image overflow="visible" width="400" height="117" xlink:href="../../../../Desktop/joint.png"  transform="matrix(-0.3435 0.0665 -0.0665 -0.3435 248.7764 158.7524)">
</image>
<image overflow="visible" width="400" height="117" xlink:href="../../../../Desktop/joint.png"  transform="matrix(-0.3201 0.1413 -0.1413 -0.3201 265.7217 169.8345)">
</image>
<image overflow="visible" width="400" height="117" xlink:href="../../../../Desktop/joint.png"  transform="matrix(-0.2806 0.209 -0.209 -0.2806 284.708 176.8696)">
</image>
<image overflow="visible" width="400" height="117" xlink:href="../../../../Desktop/joint.png"  transform="matrix(-0.227 0.2662 -0.2662 -0.227 304.7842 179.5005)">
</image>
<image overflow="visible" width="400" height="117" xlink:href="../../../../Desktop/joint.png"  transform="matrix(-0.1621 0.31 -0.31 -0.1621 324.9424 177.5981)">
</image>
<image overflow="visible" width="400" height="117" xlink:href="../../../../Desktop/joint.png"  transform="matrix(-0.089 0.3383 -0.3383 -0.089 344.1729 171.2563)">
</image>
<image overflow="visible" width="400" height="117" xlink:href="../../../../Desktop/joint.png"  transform="matrix(-0.0115 0.3497 -0.3497 -0.0115 361.5078 160.7935)">
</image>
<image overflow="visible" width="400" height="117" xlink:href="../../../../Desktop/joint.png"  transform="matrix(0.0666 0.3434 -0.3434 0.0666 376.0791 146.7349)">
</image>
<image overflow="visible" width="400" height="117" xlink:href="../../../../Desktop/joint.png"  transform="matrix(0.1414 0.32 -0.32 0.1414 387.1572 129.7876)">
</image>
<image overflow="visible" width="400" height="117" xlink:href="../../../../Desktop/joint.png"  transform="matrix(0.2091 0.2805 -0.2805 0.2091 394.1846 110.7974)">
</image>
<image overflow="visible" width="400" height="117" xlink:href="../../../../Desktop/joint.png"  transform="matrix(0.2663 0.2269 -0.2269 0.2663 396.8096 90.7212)">
</image>
<image overflow="visible" width="400" height="117" xlink:href="../../../../Desktop/joint.png"  transform="matrix(0.3101 0.162 -0.162 0.3101 394.9004 70.563)">
</image>
</svg>
